<svg xmlns="http://www.w3.org/2000/svg" xmlns:xlink="http://www.w3.org/1999/xlink" viewBox="0 0 360 360"><defs><style>.cls-1{fill:none;}.cls-2{fill:#a7a7a7;}.cls-3{fill:#0f0f0f;}.cls-12,.cls-4{fill:#c6c6c6;}.cls-12,.cls-4,.cls-5,.cls-6,.cls-7,.cls-8,.cls-9{stroke:#000;stroke-width:1.5px;}.cls-4,.cls-6,.cls-7,.cls-8,.cls-9{stroke-miterlimit:10;}.cls-5,.cls-6{fill:#ececec;}.cls-12,.cls-5{stroke-linecap:round;stroke-linejoin:round;}.cls-7{fill:#ffc51f;}.cls-11,.cls-8{fill:#fff;}.cls-9{fill:#e2e2e2;}.cls-10{fill:url(#未命名的渐变_16);}.cls-11{opacity:0.18;}</style><linearGradient id="未命名的渐变_16" x1="57.9" y1="180" x2="302.1" y2="180" gradientUnits="userSpaceOnUse"><stop offset="0" stop-color="#0f0f0f" stop-opacity="0.5"/><stop offset="0.24" stop-color="#0f0f0f" stop-opacity="0.12"/><stop offset="1" stop-color="#0f0f0f" stop-opacity="0"/></linearGradient></defs><title>无搜索内容</title><g id="图层_2" data-name="图层 2"><g id="图层_1-2" data-name="图层 1"><rect class="cls-1" width="360" height="360"/><path class="cls-2" d="M302.1,184.18c-.61,68-101.91,122.16-138.42,123.37-30.87,1-54.5-10.17-71.51-27.43-14.37-14.59-24-34.24-29.3-57.09-1-4.19-1.82-8.5-2.49-12.9-.63-4-1.13-8.08-1.52-12.24s-.66-8.53-.81-12.9c-.11-2.79-.15-5.62-.15-8.47q0-6.53.61-12.86A133.21,133.21,0,0,1,63.86,137c16.82-54.2,70-93.62,128.78-82.85C274.14,69.1,302.69,117.8,302.1,184.18Z"/><path class="cls-2" d="M206.66,196.44c-.06,8.25-3.95,14.9-8.69,14.87h0l-41.58-.2c-2.56,9.95-8.13,17.1-14.79,17.72a8.7,8.7,0,0,1-1.25,0h0l-76.15-.53c-.47-1.75-.91-3.53-1.33-5.32q-.94-4-1.69-8.18h0c-.29-1.56-.55-3.13-.8-4.72q-.95-6-1.51-12.24T58.06,185q-.14-3.53-.15-7.14c0-.45,0-.89,0-1.34q0-3.63.19-7.22.13-2.68.39-5.34l82,.58h.3c6.58.19,12.36,6.88,15.21,16.71l28.8.14h1l12.29,0a4.19,4.19,0,0,0-.5,0h.54C202.92,181.48,206.71,188.19,206.66,196.44Z"/><path class="cls-3" d="M146.13,161.11c-1.22,1.6-1.48,3.93-2.15,5.95,1.37.34,3.15,1.38,4,.87,1.81-1.06,3.14-2.93,4.67-4.47-.6-1.53-1-4-1.9-4.15A5.59,5.59,0,0,0,146.13,161.11Z"/><path class="cls-3" d="M85.58,263.45A152.57,152.57,0,0,1,69.22,243.7c5.52,14.11,13.13,26.45,23,36.42a93,93,0,0,0,9.06,8.08q3.47,2.61,7.08,5c13.23,8.46,29.21,13.76,48.09,14.33a168.57,168.57,0,0,1-70.82-44.11Z"/><path class="cls-3" d="M229.9,83.06A158.56,158.56,0,0,1,263.69,127c5.59,10.73,9.43,22.38,14.06,33.61-1.86-4.42-3.77-8.81-5.57-13.26-13.07-32.23-33.44-58.78-61.91-78.86-10.66-7.52-22-13.7-34.92-16.08A106.83,106.83,0,0,0,126.91,63c-10.26,7-18.68,16.15-26,26.6A146.31,146.31,0,0,0,79.21,137c-1.11,4.25-2.43,8.44-3.65,12.66a16.86,16.86,0,0,1,.12-2.85c4.79-22.49,13.24-43.38,27.27-61.79a110.53,110.53,0,0,1,17.72-18.83A116.81,116.81,0,0,0,102.46,78.8a154.92,154.92,0,0,0-14,22.09C85,107.48,82,114.3,78.73,121a11.4,11.4,0,0,1-.32,2.13,189,189,0,0,0-9.66,42.25,11,11,0,0,1-1,2.58c1.51-9.5,2.6-19.09,4.66-28.47,1.39-6.34,4.13-12.4,6.27-18.58a4.43,4.43,0,0,1,.14-1.42A162.65,162.65,0,0,1,98,82.76,123.19,123.19,0,0,0,83.21,99.17a173.67,173.67,0,0,0-8.73,20.18c-1.71,4.77-3.62,9.47-5.44,14.2a10.47,10.47,0,0,1-.16,2.18c-3.69,13.9-6.41,28-6.95,42.37a10.24,10.24,0,0,1-.84,2.64c1.13-10.53,2-21.1,3.52-31.57.8-5.36,2.91-10.52,4.43-15.77a23,23,0,0,1,.55-3.35,188.77,188.77,0,0,1,9.86-25.59A124.93,124.93,0,0,0,63.86,137a133.07,133.07,0,0,0-5.35,26.65q-.61,6.34-.61,12.85c0,2.86,0,5.69.15,8.48.15,4.37.41,8.67.81,12.9s.89,8.23,1.52,12.24c.67,4.4,1.51,8.7,2.49,12.9a150.48,150.48,0,0,0,4.56,15.82c8.49,14,19.66,25.83,32.24,36.39a162.77,162.77,0,0,0,61.05,32.37l3-.06c5.65-.19,12.85-1.64,21-4.22-36-4.55-67.21-19.25-92.53-45.69-10.08-10.53-19.2-21.91-24.88-35.59a20.79,20.79,0,0,1-.8-4.59C73.64,236,86,251,100.46,264.16,124.53,286,153,298.48,185.29,302.39a8.38,8.38,0,0,1,1.39.29c16.77-5.58,37.16-15.71,56.13-29.19a43,43,0,0,1-4.44,1.54,35.75,35.75,0,0,1,3.39-2.15,81.77,81.77,0,0,0,8.09-4.6c4-3.06,7.83-6.27,11.55-9.61a54.83,54.83,0,0,0,4.53-5.54c11.44-16.16,16.29-34.29,16.7-53.85a29.81,29.81,0,0,1,.72-4.36c1,22-4.11,42-17.06,59.2,20.52-19.8,35.57-43.84,35.81-69.94.47-53.76-18.16-95.93-68.57-117.95a171.19,171.19,0,0,1,25,25.23c4.49,5.52,8.28,11.61,12.4,17.44a14.86,14.86,0,0,1-2-2.05A178.27,178.27,0,0,0,233.8,68.1c-1.53-1.27-3.09-2.5-4.66-3.7a190.75,190.75,0,0,0-36.5-10.24,107.3,107.3,0,0,0-12.17-1.52C199.78,57.83,215.29,69.71,229.9,83.06ZM64.1,212.81C63,206.05,61.92,199.29,61,192.5c-.14-.95.44-2,.69-3q1.89,12.87,3.76,25.73A8.55,8.55,0,0,1,64.1,212.81ZM146.68,60.66A52.76,52.76,0,0,1,178.47,64c14.43,6.09,26.2,16.16,37.66,26.44a149.76,149.76,0,0,1,30.76,39c5.47,9.84,9.42,20.53,14.06,30.83-1.71-3.58-3.52-7.11-5.11-10.75-13.28-30.46-33.3-55.51-60.42-74.73-11-7.78-22.87-13.84-36.76-14-5.21-.07-10.43.91-15.65,1.4A20.13,20.13,0,0,1,146.68,60.66ZM85.21,173.48c-.48-2.66-1.3-5.3-1.38-8A114.84,114.84,0,0,1,94.69,113c7.86-17,18.47-31.67,35.72-40.41a15.27,15.27,0,0,1,3.72-.8c-2.89,1.63-5.87,3.12-8.65,4.92-19.25,12.42-29,31.42-35.61,52.39C85.33,143.54,84.18,158.42,85.21,173.48Zm19.35,59c23.73,26.32,53.26,40,88.75,40.71a28.39,28.39,0,0,1,4.34.76c-7.45-.42-15-.1-22.34-1.38-43.55-7.64-74.34-31.61-91.43-72.65-.53-1.28-.41-2.84-.59-4.26C88.58,209,94.86,221.69,104.56,232.46Zm74.3,31.94a10.26,10.26,0,0,1,2.2.94c-7.15-1.48-14.49-2.34-21.4-4.55-29.38-9.43-51.35-27.89-65.63-55.32-.7-1.34-.76-3-1.12-4.52C110.64,236.89,139.61,257.6,178.86,264.4Zm-81.2-68.24c7,14.37,15.85,27.2,28.2,37.65,15,12.64,31.44,21.72,50.93,24.83,3.78.61,7.57,1.08,11.36,1.62a55.87,55.87,0,0,1-7.43.05,92.48,92.48,0,0,1-35.65-11.65c-20.07-11.56-36.12-26.95-46.3-48A22.51,22.51,0,0,1,97.66,196.16Zm93.14,53.46c-2.1.58-4.48.13-6.74.13a23.08,23.08,0,0,1-4.27.53c-15.44-.68-29.2-6.31-41.82-14.81-26.13-17.59-41.06-41.94-43.51-73.57a13.81,13.81,0,0,1,.69-3.51c1.14,19,6.36,36.55,18,52,14.86,19.73,34,32.82,58.32,38,4.11.87,8.37,1,12.57,1.42.2-.15.4-.38.62-.4,26.26-3,42.31-22,42-47.06a13.46,13.46,0,0,1,.72-3.11c.07,2.48.33,5,.17,7.43C225.93,229.87,212.67,243.65,190.8,249.62ZM153.55,76.4c9.19,2.86,16.3,9.06,22.54,15.88,10.81,11.81,21.5,23.84,31.1,36.64,6.21,8.28,10.39,18.09,15.48,27.22a9.94,9.94,0,0,1-1.61-1.85c-10.85-22-25.58-41.2-42.84-58.49-8.84-8.86-17.87-17.65-31-20-.35-.06-.62-.5-.93-.77A64.6,64.6,0,0,1,153.55,76.4Zm-5.12-8.22c11.24-.91,21.28,2.8,29.81,9.53a295.21,295.21,0,0,1,29.56,26.16c7.22,7.48,12.8,16.55,19.11,24.91a19.83,19.83,0,0,1-2.28-2.4,192.76,192.76,0,0,0-34.07-37.9c-11.86-10.06-24.1-19.34-40.7-19.55C149.38,68.92,148.91,68.44,148.43,68.18Zm17,24.52c19.19,15.83,34.42,35,46.35,56.69,2.61,4.78,4.4,10,6.56,15a16.28,16.28,0,0,1-1.58-2.34,181,181,0,0,0-37.32-54.68,154.14,154.14,0,0,0-22.64-18.8c-4.2-2.84-10.11-3.15-15.25-4.6C151,82.91,158.56,87,165.45,92.7Zm-56.52,82.23a.68.68,0,0,1,0-.14l0-.06,0,0c-.79-5.2-2.21-10.39-2.19-15.59.06-18.59,5.67-35.24,19.12-48.6,9.68-9.62,23.54-11.84,35.3-2.29a140.58,140.58,0,0,1,33.46,39.46c3.39,5.9,5.72,12.41,8.54,18.64-.88-1.69-1.82-3.35-2.61-5.08A144.65,144.65,0,0,0,160.35,109c-9.91-8.16-21.81-7.78-31.59.51-10.82,9.17-16.42,21.39-19.57,34.9-2.35,10.08-1.71,20.22-.28,30.36a7.64,7.64,0,0,1,.94,1.72,63.06,63.06,0,0,0,12.76,25.36c11.79,14.26,26.35,23.9,44.92,26.85a16.31,16.31,0,0,1,3,1.07c-4.07-.64-8.28-.8-12.18-2a72.07,72.07,0,0,1-41.62-32.46c-3.7-6.17-5.28-13.62-7.82-20.49C108.92,174.85,108.92,174.89,108.93,174.93Zm6,.42c-2.14-6.12-3.35-12.3-1.51-18.73l1.5,18.59a25.66,25.66,0,0,1,1.25,2.45c9.53,24.59,26.78,39.19,53.59,41.44-1.4.23-2.84.8-4.19.64-18.52-2.08-32.72-11.46-42.83-26.73-3.52-5.32-5.27-11.82-7.82-17.78A.49.49,0,0,0,114.93,175.35Zm-.76-26.45c1.29-11.39,6.44-21,14.1-29.25,3.92-4.25,8.6-7.31,14.57-7.88-.27.31-.48.81-.81.91-12.6,3.67-18.9,13.42-23.63,24.6C116.8,141.08,115.57,145,114.17,148.9Zm43.94,60.36c-15.53-3.38-26.94-12.46-34.43-26.33-1.6-3-1.9-6.64-2.8-10,7.42,21.58,21.76,34.46,45.17,35.94C163.4,209,160.61,209.81,158.11,209.26ZM147.87,149c-.61.48-1.21,1-1.84,1.42-5.89,4.25-9.26,11.78-7.83,17.57,1.53,6.25,5.6,9.5,13.23,10.58a9.71,9.71,0,0,1-3,.63c-6.19-.82-11.5-7.12-11.76-13.77-.26-6.83,5.36-15.1,11.11-16.45h0l.15-.05-.05,0c1.36,0,3-.53,4,.08,5.16,3.27,9.18,7.52,10,13.95-.65-1.14-1.32-2.29-2-3.44C157.16,154.62,154.12,150,147.87,149Zm4.86,14.61s0-.08,0-.12c-.84,3.51-3,5.8-6.61,6.13-1,.09-2.83-1.37-3.12-2.44-1-3.52,1.12-6.24,3.74-8.07a5.87,5.87,0,0,1,5.22-.43C152.83,159.22,152.51,161.9,152.73,163.62Zm4.08-18.84c-6.55-6.44-12.77-6.39-18.1,1.21-3.08,4.4-4.84,9.71-7.19,14.62a3.25,3.25,0,0,1,.41,1.37c-1.71,13.21,9.83,26.65,24.38,26.69-.58.3-1.15.82-1.74.85-13.59.75-26.62-15.67-23.08-29h0c.33-8.9,4.73-15.65,12.06-20.11,2.26-1.38,6.79-1.48,8.95-.1,8.84,5.65,15.32,13.46,17.91,24-.39-.37-1-.67-1.14-1.12C166.81,155.89,162.21,150.09,156.81,144.78Zm-4.91,33.74c6.82-2.08,9.34-7.15,9.59-13.8C163.81,170.86,158,179.18,151.9,178.52Zm18.5-6.06a5.94,5.94,0,0,1,.82-1.83c-.72,3.57-.7,7.55-2.34,10.63-2.39,4.51-6.15,8.1-12.11,7.35C165,186.31,169.75,181.14,170.4,172.46ZM156,134.39c-5.77-4.74-11.32-5.16-16.88-.08a42.11,42.11,0,0,0-9.62,12.8c-10.9,23.18,3.7,48.62,29.11,51.4a13.17,13.17,0,0,1,2.66.88,11.47,11.47,0,0,1-1.64.2c-15-.15-28.38-10.93-33.65-27.11-4.12-12.65,1.91-31.82,12.51-39.48,4.42-3.19,9.47-4.89,14.36-1.8a65.24,65.24,0,0,1,11.7,9.89c6.71,6.92,12.11,14.75,14.23,24.41a17.84,17.84,0,0,1-1.66-2.72C172.76,151.31,165.36,142.1,156,134.39Zm6.83,64.17c9.63-3,15.69-9.05,16.8-19.42,0-.48.56-.91.86-1.36a18.57,18.57,0,0,1-4.78,14.13C172.34,195.62,168.57,199.19,162.82,198.56Zm2.88-64.86c-5.83-7-12.63-13.38-23.08-12-2.85,1.83-6.07,3.27-8.46,5.58a46.37,46.37,0,0,0-13.91,27.54A29,29,0,0,1,119,159c.1-12.34,5-22.78,13.27-31.59,2.65-2.83,5.57-6.14,10.26-5.76,4.9-2.41,9.57-1,13.37,2,5.19,4.07,10.46,8.4,14.46,13.58,5.31,6.89,9.44,14.7,14.07,22.12a14.52,14.52,0,0,1-1.37-1.46C177.33,149.8,172,141.33,165.7,133.7Zm1.75-8.32a79,79,0,0,0-14-10.92c-2.87-1.76-6.75-1.89-10.17-2.75,6.22-1.08,11.47,1.15,16.16,5a116.66,116.66,0,0,1,30.12,36.24c3,5.69,4.81,12,7.15,18-.35-.4-.89-.74-1-1.2C190.13,152.5,180.19,138,167.45,125.38Zm.24,83.27c4.59-2.45,9.91-4.09,13.61-7.51,9.16-8.44,8.72-19.47,6.37-30.65a34.32,34.32,0,0,1-.35-4.32c.9,4,2.22,8,2.62,12.11.76,7.91-.34,15.67-5.81,21.84C179.87,205,175,209.32,167.69,208.65ZM198.41,186a9.78,9.78,0,0,1,.69-2.3c2.26,15.84-6.84,30.4-21.89,34.89a11.88,11.88,0,0,1-3.47,0C191.27,212.76,197.31,204.78,198.41,186Zm6.56,21.1c2.14-6.39,2-13.55,2.84-20.36.14,4.32.87,8.72.31,12.94-2,14.93-11.15,23.92-24.86,28.83-1,.37-2.32,0-3.48,0C191.34,225.11,201,218.94,205,207.12ZM188.81,237.4c17.12-6,26.72-17.89,28.2-36.13.13-1.61.47-3.2.71-4.8A38.88,38.88,0,0,1,186,238.91,20.31,20.31,0,0,1,188.81,237.4ZM165.2,102c15.33,13.12,28.21,28.38,37.71,46.14,4.78,8.94,7.92,18.77,11.81,28.19a13.08,13.08,0,0,1-1.28-2c-2.78-6.65-5.11-13.52-8.35-19.94a164.15,164.15,0,0,0-43.94-54.24c-9.68-7.82-21.24-8.2-31.89-1.84-8.14,4.87-13.7,12.33-17.94,20.42a82.29,82.29,0,0,0-8.3,54.88,21.38,21.38,0,0,1,.19,3.11c1.94,5,3.52,10.13,5.91,14.88,13.27,26.44,34.19,42.74,63.74,47.34,1.86.29,3.7.73,5.54,1.1-4.39-.42-8.93-.28-13.16-1.36-29-7.37-48.69-25.45-59.93-53-1.14-2.79-1.44-5.93-2.1-8.92h0a6.14,6.14,0,0,1-1-1.71c-4.72-26,0-49.83,17.53-70.1C133.08,89.67,149.79,88.87,165.2,102ZM114,101.13c-11.29,14.47-16.78,31.06-18.22,49.17a33.07,33.07,0,0,1-1,4.67c-.4-14.87,3.61-28.7,10.17-41.86,5.23-10.49,12.25-19.54,22.77-25.17,3-1.6,6.64-1.94,10-2.86A44.78,44.78,0,0,0,114,101.13ZM235.53,214.72a13.35,13.35,0,0,1,1.06-3,46.58,46.58,0,0,1-9.52,28.66c-4.36,5.74-9.45,10.75-16.5,13.24a7.44,7.44,0,0,1,1.39-1.46C226.28,243.74,233.75,231,235.53,214.72Zm-11.45,41.81c14.35-9.74,23.14-23.27,26.23-40.42.68-3.76,1.43-7.5,2.15-11.26-.19,19.37-7.39,35.57-22.05,48.31-5.88,5.11-12.32,9.27-20.24,10.52C214.83,261.32,219.79,259.43,224.08,256.53Zm-80-181.22c-16.75.22-28,9.55-37.16,22.39-9.66,13.62-14.85,28.92-16.81,45.41A28.48,28.48,0,0,1,89,147.38C89.24,133,93.59,119.73,100,107c6.06-12,14.21-22.14,26.29-28.53C131.81,75.58,137.64,73.4,144.1,75.31ZM79.27,157.48A134.76,134.76,0,0,1,100.4,96.07c8.33-13,18.71-24.07,33-30.79a22.43,22.43,0,0,1,4.52-1.09c-8.9,4.08-17.07,9.3-23.79,16.47-19.3,20.56-29.52,45.31-33.31,73a63.59,63.59,0,0,1-1.55,6.3C79.26,159.12,79.19,158.29,79.27,157.48Zm93,133.94c-28.44-5.57-53.12-18.37-73.37-39.12C87.7,240.84,78.21,228,72.38,212.89c-.95-2.47-1.08-5.26-1.59-7.9,1.84,4.77,3.19,9.82,5.59,14.29,20.56,38.16,52.31,61.51,94.55,70.82a43.44,43.44,0,0,1,4.58,1.57A27.2,27.2,0,0,1,172.24,291.42Zm2.12-10.06a25.48,25.48,0,0,1-4.2-.24c-22.56-4.73-42.84-14.23-60.09-29.61A121,121,0,0,1,78,205.6c-.61-1.52-.43-3.35-.61-5,1.16,3.12,2.08,6.37,3.52,9.36,16,33.35,41.44,55.85,76.88,66.79,5.53,1.71,11.16,3.11,16.74,4.65h-.14c5,.35,10,.64,14.92,1.06,2.81.24,5.6.69,8.39,1Zm72.86-26.29c-5.06,5.54-10.92,10.31-18.54,12.16A44.13,44.13,0,0,1,204.56,273l23.95-5.74c.26-.31.47-.74.8-.9,21-10.05,31.3-27.92,35.83-49.66,1.56-7.52,1.54-15.36,2.24-23.05a6.89,6.89,0,0,1,.62,1.84C268.87,218.07,262.6,238.24,247.22,255.07Zm29.83-136.79q4.32,8.93,8.63,17.86c-2.83-5.19-5.68-10.37-8.44-15.6A6.13,6.13,0,0,1,277.05,118.28Z"/><path class="cls-4" d="M140.8,164.53h0L140.65,186l-.14,20.16-.16,22.73h0l-76.15-.53c-.47-1.75-.91-3.53-1.33-5.32q-.94-4-1.69-8.18h0c-.29-1.56-.55-3.13-.8-4.72q-.95-6-1.51-12.24T58.06,185q-.14-3.53-.15-7.14c0-.45,0-.89,0-1.34q0-3.63.19-7.22.13-2.68.39-5.34l82,.58Z"/><path class="cls-5" d="M156.39,211.12c-2.56,9.95-8.13,17.1-14.79,17.72a8.7,8.7,0,0,1-1.25,0c-9-.28-16.52-12.7-17.06-28.7,0-1.23,0-2.46,0-3.69-.56-16.73,6.76-31,16.3-31.91.31,0,.63,0,.94,0h.3c6.58.19,12.36,6.88,15.21,16.71a49,49,0,0,1,1.85,12c0,1.23,0,2.46,0,3.69A50.09,50.09,0,0,1,156.39,211.12Z"/><path class="cls-6" d="M198.17,181.45l0,5.56L198,205.76l0,5.52v0l-41.58-.2-9.22,0h-.32c-2.52,0-4.79-1.91-6.34-5a22,22,0,0,1-2.15-9.88v-.18a21.71,21.71,0,0,1,2.29-10.1c1.55-2.92,3.77-4.74,6.23-4.74H147v0l9,0,28.8.14h1l11.79.06Z"/><path class="cls-7" d="M89.44,196.35a49.81,49.81,0,0,0,3.31,18.71l-26.88-.18-4.69,0c-.29-1.56-.55-3.13-.8-4.72q-.95-6-1.51-12.24T58.06,185q-.14-3.53-.15-7.14c3.33-8.23,8.81-13.64,15-13.77l5.89,0h2.45l26.82.18C97.9,164.31,89.57,178.62,89.44,196.35Z"/><path class="cls-8" d="M62.55,196.17a49.43,49.43,0,0,0,3.32,18.71l-4.69,0h0c-.29-1.56-.55-3.13-.8-4.72q-.95-6-1.51-12.24T58.06,185q-.14-3.53-.15-7.14c0-.45,0-.89,0-1.34q0-3.63.19-7.22C61,166,64.54,164,68.3,164.06l4.6,0,5.89,0H81.1C71,164.22,62.67,178.47,62.55,196.17Z"/><path class="cls-4" d="M206.66,196.44c-.06,8.25-3.95,14.9-8.69,14.87a4.71,4.71,0,0,1-.53,0c-2.14-.24-4.06-1.85-5.47-4.32l-.29-.53c-.14-.28-.29-.58-.42-.88a18.06,18.06,0,0,1-.75-2c0-.15-.09-.3-.14-.45-.09-.32-.18-.66-.26-1a25.3,25.3,0,0,1-.62-5.78c0-.77,0-1.53.11-2.27h0a25.32,25.32,0,0,1,.6-3.52A22.06,22.06,0,0,1,191,188c.16-.39.32-.77.5-1.14.08-.19.18-.37.27-.55a13.41,13.41,0,0,1,1.56-2.32h0a6.46,6.46,0,0,1,4.8-2.52h0C202.92,181.48,206.71,188.19,206.66,196.44Z"/><path class="cls-9" d="M198.67,205.56c1.62-.92,3.37-4.45,3.4-9.15.06-5.78-2.5-9.4-3.94-9.4a1.41,1.41,0,0,0-.66.2c-1.62.93-3.37,4.44-3.4,9.15,0,5.81,2.52,9.39,3.93,9.4A1.22,1.22,0,0,0,198.67,205.56Z"/><path class="cls-7" d="M198,211.28h-.53l-12.77-.06c-4.79,0-8.55-6.7-8.51-15s3.93-14.87,8.65-14.87h1l12.29,0a4.19,4.19,0,0,0-.5,0,6.61,6.61,0,0,0-4.3,2.52h0a12.05,12.05,0,0,0-1.56,2.32c-.09.18-.19.36-.27.55-.18.37-.35.75-.5,1.14a22.06,22.06,0,0,0-.81,2.53,23.92,23.92,0,0,0-.6,3.52h0q-.1,1.09-.12,2.25a24.33,24.33,0,0,0,.63,5.8c.08.34.17.68.26,1,0,.15.09.3.14.45a18.06,18.06,0,0,0,.75,2c.13.3.28.6.42.88l.29.53C193.51,209.61,195.62,211.26,198,211.28Z"/><path class="cls-10" d="M302.1,184.18c-.61,68-101.91,122.16-138.42,123.37-30.87,1-54.5-10.17-71.51-27.43-14.37-14.59-24-34.24-29.3-57.09-1-4.19-1.82-8.5-2.49-12.9-.63-4-1.13-8.08-1.52-12.24s-.66-8.53-.81-12.9c-.11-2.79-.15-5.62-.15-8.47q0-6.53.61-12.86A133.21,133.21,0,0,1,63.86,137c16.82-54.2,70-93.62,128.78-82.85C274.14,69.1,302.69,117.8,302.1,184.18Z"/><circle class="cls-11" cx="185.82" cy="185.89" r="61.08"/><path class="cls-12" d="M182.36,121.06a68.85,68.85,0,1,0,68.84,68.85A68.85,68.85,0,0,0,182.36,121.06Zm0,120.14a51.3,51.3,0,1,1,51.3-51.29A51.29,51.29,0,0,1,182.36,241.2Z"/><rect class="cls-12" x="248.29" y="221.56" width="16.47" height="72.41" transform="translate(-107.14 256.89) rotate(-45)"/><rect class="cls-5" x="251.83" y="217.08" width="18.8" height="72.41" transform="translate(-102.59 258.9) rotate(-45)"/><path class="cls-5" d="M186.06,116.62a68.85,68.85,0,1,0,68.85,68.84A68.84,68.84,0,0,0,186.06,116.62Zm0,121a52.21,52.21,0,1,1,52.21-52.21A52.21,52.21,0,0,1,186.06,237.67Z"/></g></g></svg>