<?xml version="1.0" encoding="UTF-8"?>
<svg xmlns="http://www.w3.org/2000/svg" xmlns:xlink="http://www.w3.org/1999/xlink" width="18px" height="18px" viewBox="0 0 18 18" version="1.1">
<g id="surface1">
<path style=" stroke:none;fill-rule:nonzero;fill:rgb(7.058824%,58.823529%,85.882353%);fill-opacity:1;" d="M 6.75 2.25 L 6.75 3.75 L 3 3.75 L 3 14.25 L 15 14.25 L 15 7.5 L 16.5 7.5 L 16.5 15 C 16.5 15.414062 16.164062 15.75 15.75 15.75 L 2.25 15.75 C 1.835938 15.75 1.5 15.414062 1.5 15 L 1.5 3 C 1.5 2.585938 1.835938 2.25 2.25 2.25 Z M 12 3.75 L 12 0.75 L 17.25 5.25 L 10.5 5.25 C 9.671875 5.25 9 5.921875 9 6.75 L 9 11.25 L 7.5 11.25 L 7.5 6.75 C 7.5 5.09375 8.84375 3.75 10.5 3.75 Z M 12 3.75 "/>
</g>
</svg>
